<?xml version="1.0" encoding="utf-8"?>
<!-- Generator: Adobe Illustrator 14.0.0, SVG Export Plug-In . SVG Version: 6.00 Build 43363)  -->
<!DOCTYPE svg PUBLIC "-//W3C//DTD SVG 1.1//EN" "http://www.w3.org/Graphics/SVG/1.1/DTD/svg11.dtd">
<svg version="1.1" id="Layer_1" xmlns="http://www.w3.org/2000/svg" xmlns:xlink="http://www.w3.org/1999/xlink" x="0px" y="0px"
	 width="299.412px" height="70.753px" viewBox="0 0 299.412 70.753" enable-background="new 0 0 299.412 70.753"
	 xml:space="preserve">
<g>
	<rect x="-41.833" y="144" fill="#CCBF82" width="400.667" height="168.667"/>
	<rect x="-5.5" y="179" fill="#F7FAE9" width="331" height="100"/>
</g>
<g>
	<rect x="-250.833" y="-134.75" fill="#D8CCAB" width="49.25" height="31.802"/>
	<rect x="-227.75" y="-103.115" fill="#A5946A" width="37.292" height="34.5"/>
	<rect x="-195.316" y="-135.902" fill="none" width="159.798" height="69.625"/>
	<text transform="matrix(1 0 0 1 -195.3159 -103.166)" fill="#756250" font-family="'NewBaskervilleStd-Roman'" font-size="48">eam</text>
	<rect x="-167.97" y="-101.33" fill="none" width="177.999" height="63.039"/>
	<text transform="matrix(1 0 0 1 -167.9697 -68.5942)" fill="#756250" font-family="'NewBaskervilleStd-Roman'" font-size="48">uilder</text>
	<rect x="-219.654" y="-135.893" fill="none" width="56.301" height="54.799"/>
	<text transform="matrix(1 0 0 1 -219.6538 -103.1572)" fill="#756250" font-family="'NewBaskervilleStd-Roman'" font-size="48">T</text>
	<rect x="-196.163" y="-101.29" fill="none" width="32.929" height="56.236"/>
	<text transform="matrix(1 0 0 1 -196.1631 -68.5537)" fill="#756250" font-family="'NewBaskervilleStd-Roman'" font-size="48">B</text>
	<rect x="-265" y="-103.115" fill="#756250" width="37.291" height="34.5"/>
</g>
<g>
	<rect x="50.001" y="-96.044" fill="#00AEEF" width="49.249" height="33.178"/>
	<rect x="1.001" y="-96.044" fill="#EC008C" width="49.249" height="33.178"/>
	<rect x="27.251" y="-131.339" fill="#FFF200" width="49.25" height="34.349"/>
	<rect x="65.518" y="-132.569" fill="none" width="159.798" height="69.625"/>
	<text transform="matrix(1 0 0 1 65.5181 -97.9141)" font-family="'UniversLTStd-Bold'" font-size="48">TEAM</text>
	<rect x="95.114" y="-97.498" fill="none" width="226.497" height="63.039"/>
	<text transform="matrix(1 0 0 1 95.1143 -62.8423)" font-family="'UniversLTStd-Bold'" font-size="48">BUILDER</text>
	<line fill="none" stroke="#000000" stroke-width="2" x1="0.834" y1="-97.084" x2="200.959" y2="-97.084"/>
	<line fill="none" stroke="#000000" stroke-width="2" x1="1.167" y1="-62.834" x2="299.459" y2="-62.834"/>
	<line fill="none" stroke="#000000" stroke-width="2" x1="0.834" y1="-98.084" x2="0.834" y2="-61.864"/>
	<line fill="none" stroke="#000000" stroke-width="2" x1="50.563" y1="-97.68" x2="50.563" y2="-62.029"/>
	<line fill="none" stroke="#000000" stroke-width="2" x1="27.34" y1="-132.584" x2="27.34" y2="-96.151"/>
	<line fill="none" stroke="#000000" stroke-width="2" x1="26.675" y1="-131.604" x2="66.492" y2="-131.604"/>
</g>
<g>
	<rect x="58.938" y="252.821" fill="#547980" width="49.249" height="33.511"/>
	<rect x="9.938" y="253.154" fill="#45ADA8" width="49.249" height="33.178"/>
	<rect x="36.188" y="217.859" fill="#9DE0AD" width="49.25" height="34.349"/>
	<rect x="74.455" y="216.629" fill="none" width="159.799" height="69.625"/>
	<text transform="matrix(1 0 0 1 74.4551 251.2842)" fill="#594F4F" font-family="'UniversLTStd-Bold'" font-size="48">TEAM</text>
	<rect x="104.051" y="251.7" fill="none" width="226.498" height="63.038"/>
	<text transform="matrix(1 0 0 1 104.0513 286.3555)" fill="#594F4F" font-family="'UniversLTStd-Bold'" font-size="48">BUILDER</text>
	<g>
		<line fill="none" stroke="#594F4F" stroke-width="2" x1="9.771" y1="252.114" x2="209.852" y2="252.114"/>
		<line fill="none" stroke="#594F4F" stroke-width="2" x1="10.104" y1="286.364" x2="308.396" y2="286.364"/>
		<line fill="none" stroke="#594F4F" stroke-width="2" x1="9.771" y1="251.114" x2="9.771" y2="287.334"/>
		<line fill="none" stroke="#594F4F" stroke-width="2" x1="59.5" y1="251.519" x2="59.5" y2="287.169"/>
		<line fill="none" stroke="#594F4F" stroke-width="2" x1="36.277" y1="216.614" x2="36.277" y2="253.047"/>
		<line fill="none" stroke="#594F4F" stroke-width="2" x1="35.612" y1="217.595" x2="75.429" y2="217.595"/>
	</g>
</g>
<g>
	<rect x="50.167" y="36.207" fill="#0B8C8F" width="49.249" height="33.511"/>
	<rect x="1.167" y="36.54" fill="#D6156C" width="49.249" height="33.178"/>
	<rect x="27.417" y="1.245" fill="#CACF43" width="49.25" height="34.349"/>
	<rect x="65.684" y="0.015" fill="none" width="159.8" height="69.625"/>
	<text transform="matrix(1 0 0 1 65.6841 34.6699)" fill="#2B2825" font-family="'UniversLTStd-Bold'" font-size="48">TEAM</text>
	<rect x="95.28" y="35.086" fill="none" width="226.499" height="63.038"/>
	<text transform="matrix(1 0 0 1 95.2803 69.7412)" fill="#2B2825" font-family="'UniversLTStd-Bold'" font-size="48">BUILDER</text>
	<g>
		<line fill="none" stroke="#2B2825" stroke-width="2" x1="1" y1="35.5" x2="201.082" y2="35.5"/>
		<line fill="none" stroke="#2B2825" stroke-width="2" x1="1.333" y1="69.75" x2="299.459" y2="69.75"/>
		<line fill="none" stroke="#2B2825" stroke-width="2" x1="1" y1="34.5" x2="1" y2="70.72"/>
		<line fill="none" stroke="#2B2825" stroke-width="2" x1="50.729" y1="34.904" x2="50.729" y2="70.555"/>
		<line fill="none" stroke="#2B2825" stroke-width="2" x1="27.506" y1="0" x2="27.506" y2="36.433"/>
		<line fill="none" stroke="#2B2825" stroke-width="2" x1="26.841" y1="0.98" x2="66.658" y2="0.98"/>
	</g>
</g>
</svg>
